<?xml version="1.0" standalone="no"?><!DOCTYPE svg PUBLIC "-//W3C//DTD SVG 1.1//EN" "http://www.w3.org/Graphics/SVG/1.1/DTD/svg11.dtd"><svg t="1524631087155" class="icon" style="" viewBox="0 0 1024 1024" version="1.1" xmlns="http://www.w3.org/2000/svg" p-id="1149" xmlns:xlink="http://www.w3.org/1999/xlink" width="200" height="200"><defs><style type="text/css"></style></defs><path d="M834.7328 376.36096c-58.14528-44.3328-177.46944-118.70848-323.37152-118.70848-145.90336 0-265.2288 74.3744-323.3728 118.70848C96.02688 446.47808 58.2016 512.33792 57.92 527.98976c0.2816 15.616 38.10688 81.47712 130.0672 151.59424 58.144 44.3328 177.46944 118.70848 323.3728 118.70848 145.90208 0 265.22624-74.37568 323.37152-118.70848 91.96032-70.11584 129.78688-135.97696 130.0672-151.6288-0.28032-15.61728-38.1056-81.47712-130.06592-151.59424M511.36 719.81312c-105.94688 0-191.84128-85.88928-191.84128-191.84S405.41312 336.13312 511.36 336.13312s191.84 85.88928 191.84 191.84S617.30688 719.81312 511.36 719.81312m0-348.8c-86.68544 0-156.96 70.27072-156.96 156.96 0 86.6816 70.27584 156.96 156.96 156.96 86.68416 0 156.96-70.2784 156.96-156.96 0-86.68928-70.27456-156.96-156.96-156.96" fill="#FFFFFF" p-id="1150"></path><path d="M511.36 405.89184c-67.424 0-122.08 54.65472-122.08 122.08 0 67.42784 54.65728 122.08 122.08 122.08 67.42144 0 122.08-54.65216 122.08-122.08 0-67.42528-54.65728-122.08-122.08-122.08m-26.15936 139.52128c-24.07936 0-43.60064-19.5264-43.60064-43.60064s19.52128-43.60064 43.60064-43.60064c24.07296 0 43.59936 19.5264 43.59936 43.60064s-19.5264 43.60064-43.59936 43.60064" fill="#86AEDD" p-id="1151"></path><path d="M642.16064 545.41312h17.44v-17.44h-17.44v17.44z m-13.83936 17.44h13.83936v-17.44h-10.10688c-0.85376 5.96096-2.05824 11.79392-3.73248 17.44m39.99872-34.88c0-5.9008-0.39168-11.70816-1.02272-17.44h-7.69792v17.44h8.72064z m-8.71936-51.22176v16.34176h4.70144a158.37824 158.37824 0 0 0-4.70144-16.34176m-0.40064-1.09824a157.76384 157.76384 0 0 0-7.38688-17.44h-9.65248v17.44H659.2z m-27.14752 34.88c0.82176 5.71392 1.38752 11.50464 1.38752 17.44h8.72064v-17.44h-10.10816z m27.54816-17.44h-17.44v17.44h17.44v-17.44z m-52.32-87.20128h-17.44v17.44h17.44v-17.44z m0 46.72512v-11.84512h-10.56c3.78624 3.69664 7.28064 7.6736 10.56 11.84512m-17.44-46.72512v-13.71008a163.84896 163.84896 0 0 0-6.78272-3.72992h-10.65728v17.44h17.44z m0 28.62976v-11.18976h-15.83488c5.56032 3.3472 10.89024 7.03488 15.83488 11.18976m34.88 48.31872a123.66208 123.66208 0 0 1 3.60064 10.2528h13.83936v-17.44h-17.44v7.1872z m-13.2544-24.6272c3.83488 5.4848 7.16544 11.34208 10.06848 17.44h3.18464v-17.44h-13.25312z m30.6944 0v-16.92928c-0.10624-0.17152-0.19968-0.34944-0.30592-0.51072h-17.13408v17.44h17.44z m-17.44-34.88h-17.44v17.44h17.44v-17.44z m0-3.73888v3.7376h3.40224c-1.12896-1.25184-2.24512-2.52032-3.40224-3.7376m-244.16 195.07584v-16.93696h-9.65248c2.912 5.84064 6.0672 11.52896 9.65248 16.93696m122.08 69.82016c2.90304 0.16256 5.7728 0.44288 8.72064 0.44288 2.94528 0 5.81504-0.28032 8.71936-0.44288v-16.99712h-17.44v16.99712z m-52.32-11.87968v-5.11744h-10.65856c3.5008 1.79584 7.01312 3.584 10.65856 5.11744m-34.88-20.5824a158.5472 158.5472 0 0 0 17.44 11.73376v-13.71008h-17.44v1.97632z m-34.57408-36.85504c4.13056 6.16576 8.79744 11.9296 13.73184 17.44h3.40224v-17.44h-17.13408z m86.89408 63.49184c5.6832 1.64352 11.50848 2.912 17.44 3.91808v-15.08992h-17.44v11.17184z m87.2-264.6144a121.8752 121.8752 0 0 1 17.44 8.31104v-16.46976h-17.44v8.15872z m73.16224 218.56256c4.9344-5.5104 9.60128-11.27424 13.73184-17.44h-17.13408v17.44h3.40224z m-45.06496 34.88h-10.65728v5.11744c3.64416-1.53344 7.15648-3.3216 10.65728-5.11744m-45.53728 15.08992c5.93152-1.0048 11.7568-2.27328 17.44-3.91808v-11.17312h-17.44v15.0912z m52.32-18.82112a158.4256 158.4256 0 0 0 17.44-11.73376v-1.97632h-17.44v13.71008z m61.97248-66.0288h-9.65248v16.93696c3.584-5.408 6.7392-11.09632 9.65248-16.93696M467.76064 377.28c-5.94816 1.71136-11.80672 3.67104-17.44 6.04672v5.1264h17.44v-11.17312z m-112.3392 168.13312c0.66048 5.93536 1.70752 11.73376 2.99776 17.44h4.70016v-17.44h-7.69792z m182.0992-172.04224a152.84736 152.84736 0 0 0-17.44-1.91616v16.99712h17.44v-15.08096z m69.76 30.55488v1.96608h2.63296c-0.85376-0.68864-1.76896-1.29408-2.63296-1.96608m-34.88-20.59904c-5.63328-2.37568-11.49184-4.33408-17.44-6.04672v11.17312h17.44v-5.1264z m-69.76-11.87072c-5.91488 0.31488-11.72224 0.94464-17.44 1.91616v15.08096h17.44V371.456zM355.42144 510.53312c-0.62976 5.73184-1.02144 11.5392-1.02144 17.44h8.72064v-17.44h-7.6992z m2.99776-17.44h4.70016v-16.34176a158.0544 158.0544 0 0 0-4.70016 16.34176m54.38976-87.20128h2.63168v-1.96608c-0.86528 0.672-1.78048 1.27744-2.63168 1.96608m-41.90208 52.32128A156.79104 156.79104 0 0 0 363.52 475.65312h17.03936v-17.44h-9.65248z m23.69152-34.88h3.40224v-3.7376c-1.1584 1.216-2.2784 2.48448-3.40224 3.7376m-0.20096 139.52c-1.67296-5.6448-2.87872-11.47904-3.72992-17.44h-10.10816v17.44h13.83808z m108.2432 86.75584v0.44416h8.72064c-2.94784 0-5.82528-0.2304-8.72064-0.44416m-17.44 17.88416h17.44v-17.44h-17.44v17.44z m34.88-17.88416c-2.89664 0.21376-5.77408 0.44416-8.71936 0.44416h8.71936v-0.44416z m34.88-261.15584h-17.44v17.44h17.44v-17.44z m-34.88 279.04h17.44v-17.44h-17.44v17.44z m-69.76 0h17.44v-17.44h-17.44v17.44z m-52.32-34.88v3.7376c4.65792 4.864 9.568 9.46944 14.80832 13.7024h2.63168v-17.44h-17.44z m156.96 9.28c-5.63328 2.1568-11.44064 3.97056-17.44 5.27104v2.88768h17.44v-8.15872z m-139.52-38.55744a120.22272 120.22272 0 0 1-4.1856-5.60384h-13.2544v17.44h17.44v-11.83616z m33.2736 29.27744h-15.83488v17.44h17.44v-16.46976c-0.54016-0.31616-1.06368-0.64896-1.60512-0.97024m-15.8336 0v-11.1808a127.04896 127.04896 0 0 1-6.88-6.2592h-10.56v17.44h17.44z m188.65408-52.32h3.18464v-7.1872c-0.97408 2.44352-2.05696 4.82688-3.18464 7.1872m3.18592 17.44h17.44v-17.44h-17.44v17.44z m17.44-17.44H659.2c0.128-0.37376 0.26752-0.73216 0.40064-1.1072v-16.3328h-17.44v17.44z m17.44-17.44h4.70144c1.29024-5.70624 2.33728-11.50464 2.99648-17.44h-7.69792v17.44z m-104.64 104.64h17.44v-17.44h-17.44v17.44z m52.32-64.15744v11.83616h17.44v-17.44h-13.25312a119.8016 119.8016 0 0 1-4.18688 5.60384m0 11.83744h-10.56a127.6288 127.6288 0 0 1-6.88 6.2592v11.1808h17.44v-17.44z m-33.27616 17.44c-0.54016 0.32256-1.06368 0.65536-1.60512 0.97024v16.46976h17.44v-17.44h-15.83488z m33.27616 17.44h2.63296c5.24032-4.23296 10.1504-8.8384 14.80704-13.7024v-3.7376h-17.44v17.44z m-122.08-2.88768c-6.00064-1.30176-11.80672-3.11552-17.44-5.27104v8.15872h17.44v-2.88768z m-87.2-74.0608v7.1872h3.18464c-1.12896-2.36672-2.20928-4.7424-3.18464-7.1872m34.88-167.2128h-17.44v17.44h17.44v-17.44z m17.44-17.43872h-10.65856a163.12576 163.12576 0 0 0-6.78144 3.72992v13.71008h17.44v-17.44z m-1.6064 34.88h-15.83488v11.18976c4.94464-4.15616 10.27072-7.84384 15.83488-11.18976m36.4864-34.88h-17.44v17.44h17.44v-17.44z m34.88 17.8816c5.9392 0.41728 11.7632 1.20064 17.44 2.43584v-2.87872h-17.44v0.44288z m0-17.8816h-17.44v17.44h17.44v-17.44z m-104.64 34.88h-17.44v17.44h17.44v-17.44z m69.76-14.56256c5.67552-1.2352 11.5008-2.01856 17.44-2.43584v-0.44288h-17.44v2.87872z m-34.88 13.59104a121.8752 121.8752 0 0 1 17.44-8.31104v-8.15872h-17.44v16.46976z m-87.2 140.49152v16.3328c0.13184 0.37504 0.26752 0.73344 0.40064 1.1072h17.03936v-17.44h-17.44z m26.15936-34.88c0-5.93536 0.56576-11.72608 1.38752-17.44h-10.10816v17.44h8.72064z m-8.71936 0h-17.44v17.44h17.44v-17.44z m0 69.76h17.44v-17.44h-17.44v17.44z m17.44-156.96h-17.13408c-0.10624 0.16128-0.19968 0.34048-0.30592 0.51072v16.92928h17.44v-17.44z m27.99872 0h-10.56v11.84512c3.27936-4.1728 6.77376-8.14976 10.56-11.84512m-24.81408 34.88c2.90432-6.09792 6.2336-11.9552 10.06976-17.44h-13.2544v17.44h3.18464z m-20.62464 17.44h-17.44v17.44h17.44v-17.44z m17.44-10.2528v-7.1872h-17.44v17.44h13.83808a124.4992 124.4992 0 0 1 3.60192-10.2528" fill="" p-id="1152"></path><path d="M511.36 336.13312c-105.94688 0-191.84128 85.88928-191.84128 191.84S405.41312 719.81312 511.36 719.81312s191.84-85.88928 191.84-191.84S617.30688 336.13312 511.36 336.13312m0 348.8c-86.68544 0-156.96-70.2784-156.96-156.96 0-86.68928 70.27584-156.96 156.96-156.96 86.68416 0 156.96 70.27072 156.96 156.96 0 86.68032-70.27456 156.96-156.96 156.96m0-462.16064C241.6704 222.77248 23.04 458.21312 23.04 527.97312s218.6304 305.20064 488.32 305.20064c269.69344 0 488.32-235.44064 488.32-305.20064S781.05344 222.77248 511.36 222.77248m323.3728 456.81152c-58.14528 44.3328-177.46944 118.70848-323.37152 118.70848-145.90336 0-265.2288-74.37568-323.3728-118.70848C96.02688 609.46688 58.2016 543.60576 57.92 527.98976c0.2816-15.65312 38.10688-81.51168 130.0672-151.6288 58.144-44.34048 177.46944-118.70848 323.3728-118.70848 145.90208 0 265.22624 74.368 323.37152 118.70848 91.96032 70.11712 129.78944 135.97696 130.0672 151.6032-0.27648 15.6416-38.1056 81.50272-130.06592 151.61984" fill="" p-id="1153"></path></svg>