<svg id="图层_1" data-name="图层 1" xmlns="http://www.w3.org/2000/svg" viewBox="0 0 465 141.08"><defs><style>.cls-1,.cls-2{fill:#231815;}.cls-1{fill-rule:evenodd;}.cls-2{font-size:27.86px;font-family:ArialMT, Arial;}</style></defs><title>LOGO</title><path class="cls-1" d="M25.21,45.6l-2,66.44,0,1.1-1.07-.24-3.55-.79-.73-.17,0-.74,2-65.6H8.44V40.25H20.09l.07-6V33.16l1.09.25,3.55.79.72.16v.73l-.06,5.16H82.65v65.84h9.76V93H97v17.64H77.29V45.6Zm233.17-3.33h54.18V37.51h5.35v4.76h10.28v5.35H317.91v5.2h-5.35v-5.2H256.22v5.63h-5.35V47.62H239.55V42.27h11.32V37.51h5.35v4.76h2.16Zm-87.59,63.87h36v-31h-36v31Zm-41.48-31v31h36.13v-31Zm36.13-18.47H129.31V69.82h36.13V56.71Zm41.38,13.11V56.71h-36V69.82Zm5.76-17.56v58.46H124V51.35h88.62v.91Zm37.28,13.56-8.34-1.08-.57-.07-.18-.54-1.17-3.54-.38-1.12,1.19-.07,13.84-.8,1-.06V110.7h-5.35V65.82Zm74.65,1.9-17.86.77v37.24h21.48v5H301.3V69l-7.4.62-.88.07-.1-.88-.4-3.55-.11-.93.94-.07,7.95-.64v-8.2h5.35v7.32l17.4-.77.86,0,.09.85.38,3.94.1,1-1,0Zm30.65,42.09V37.53h88.62v73.19H355.16v-.91ZM401.59,66.9v39.24H438V66.9Zm-41.07,0v39.24h35.32V66.9Zm41.07-24V61.55H438V42.88Zm-41.07,0V61.55h35.32V42.88Z" transform="translate(-8.44 -12.65)"/><path class="cls-1" d="M21.25,133.94h2.23v12.22a8.22,8.22,0,0,1-1.78,5.54,6.36,6.36,0,0,1-4.93,2,14.94,14.94,0,0,1-3.07-.3,23.52,23.52,0,0,1-3.21-.9l-.19-.07,0-.2.41-1.75.06-.24.23.07a27.6,27.6,0,0,0,3.07.8,14.38,14.38,0,0,0,2.65.25A3.89,3.89,0,0,0,19.89,150,6,6,0,0,0,21,146.18V133.94Zm26.64,0H50.1v19.37H47.67V133.94Zm41,0h2.2v11.55a8.17,8.17,0,0,1-2.28,6,9.27,9.27,0,0,1-12.11,0,8.23,8.23,0,0,1-2.27-6V133.94h2.43v11.55a6,6,0,0,0,1.6,4.33,5.88,5.88,0,0,0,4.29,1.61,5.53,5.53,0,0,0,5.91-5.94V133.94Zm45.47,19.15-.83-13.71L127,153.18l-.07.13h-2.06l-.06-.13-6.52-13.8-.81,13.71v.22h-2.41l0-.24,1.11-18.91v-.22h2.25l.07.14,7.38,16.09,7.39-16.09.06-.14h2.25v.22l1.11,18.91,0,.24h-2.4l0-.22Zm40.89-19.15h2.2v11.55a8.17,8.17,0,0,1-2.28,6,9.27,9.27,0,0,1-12.11,0,8.23,8.23,0,0,1-2.27-6V133.94h2.43v11.55a6,6,0,0,0,1.6,4.33,5.88,5.88,0,0,0,4.29,1.61,5.53,5.53,0,0,0,5.91-5.94V133.94Zm42.26.23v19.14h-2.43v-8.46H204v8.46h-2.43V133.94H204v8.65h11v-8.65h2.43v.23Zm38.76-.23h2.2v11.55a8.17,8.17,0,0,1-2.28,6,9.27,9.27,0,0,1-12.11,0,8.23,8.23,0,0,1-2.27-6V133.94h2.43v11.55a6,6,0,0,0,1.6,4.33,5.88,5.88,0,0,0,4.29,1.61,5.55,5.55,0,0,0,5.92-5.94V133.94Zm39,14.75H285l-2,4.48-.06.14H280.2l.15-.32,8.59-19.05.06-.14h2.19l.06.14L299.84,153l.14.32h-2.69l-.06-.14-2-4.48Zm-1-2.23-4.13-9.34-4.15,9.34Zm41.1-10.25h-7.26v17.1h-2.43v-17.1h-7.48v-2.27h17.39v2.27Zm22.08-2.27h2.21v19.37h-2.43V133.94Zm39.94,14.75H387.06l-2,4.48-.06.14h-2.72l.14-.32,8.6-19.05.06-.14h2.18l.06.14L402,153l.14.32h-2.7l-.06-.14-2-4.48Zm-1-2.23-4.13-9.34L388,146.46Zm42.87-12.52h2.2v19.37h-2.34l-.06-.09-11.78-15.16v15.25h-2.43V133.94h2.26l.07.09L439,149.25V133.94Z" transform="translate(-8.44 -12.65)"/><polygon class="cls-1" points="115.52 32.4 115.52 28.87 115.52 27.96 116.43 27.96 157.27 27.96 154.34 23.86 153.81 23.12 154.55 22.59 157.33 20.63 158.04 20.12 158.57 20.8 164.2 27.96 203.22 27.96 204.13 27.96 204.13 28.87 204.13 32.4 204.13 33.31 203.22 33.31 116.43 33.31 115.52 33.31 115.52 32.4"/><text class="cls-2" transform="translate(444.44 23.91)">®</text></svg>