<svg height="48" viewBox="0 0 1024 1024" width="48" xmlns="http://www.w3.org/2000/svg"><path d="m1024.512 498.688c0-1.536 0-3.072-.512-5.12-1.024-6.144-4.608-11.776-9.216-15.36l-258.048-258.048c-10.24-10.24-26.112-10.24-36.352 0s-10.24 26.112 0 36.352l216.576 216.576h-912.384c-13.312 0-24.576 11.264-24.576 25.6s10.752 25.6 24.576 25.6h912.384l-216.576 216.576c-10.24 10.24-10.24 26.112 0 36.352 5.12 5.12 11.776 7.68 17.92 7.68s13.312-2.56 17.92-7.68l258.048-258.048c4.608-3.584 8.192-9.216 9.216-15.36 1.024-2.048 1.024-3.584 1.024-5.12z"/></svg>